<?xml version="1.0" encoding="UTF-8"?>
<svg version="1.1" xmlns="http://www.w3.org/2000/svg" width="512" height="512">
<path d="M0 0 C0.7917282 -0.00199105 1.5834564 -0.0039821 2.39917636 -0.00603348 C3.26298836 -0.00312064 4.12680036 -0.0002078 5.01678848 0.00279331 C5.93900546 0.00193889 6.86122244 0.00108446 7.81138539 0.00020415 C10.90837613 -0.00144586 14.00531297 0.00406293 17.10229874 0.00952244 C19.31960931 0.00980444 21.53691998 0.00964632 23.7542305 0.00907993 C29.78066909 0.00879246 35.80708787 0.01468111 41.83352184 0.02165389 C48.12894402 0.02789576 54.42436662 0.02849189 60.71979141 0.0296793 C71.28854077 0.03243648 81.85728363 0.03868707 92.42602921 0.04760838 C103.31177102 0.05678771 114.19751086 0.063866 125.08325577 0.06811619 C125.75427888 0.06837891 126.42530199 0.06864164 127.11665913 0.06891232 C130.48299262 0.07021736 133.84932611 0.07148107 137.21565962 0.07272422 C165.14174492 0.08318303 193.0678221 0.10077773 220.9939003 0.12304783 C220.99886552 1.00238782 220.99886552 1.00238782 221.00393105 1.89949226 C221.08524264 16.18066965 221.1773617 30.4617473 221.28142738 44.74277687 C221.33149421 51.64905247 221.37793766 58.55531655 221.4157753 65.46167088 C221.45230375 72.12718916 221.49902988 78.79256484 221.55196381 85.45797634 C221.57049037 88.0004303 221.58560473 90.54291149 221.59724426 93.0854063 C221.61413607 96.64764636 221.64317913 100.20959631 221.67505264 103.77172947 C221.67721283 104.82189747 221.67937302 105.87206547 221.68159866 106.95405674 C221.75868225 113.70194807 221.89724642 119.42734999 226.1814003 124.93554783 C232.50291628 129.85228248 239.66664423 129.42610072 247.34521866 129.44189548 C248.46790146 129.45194111 249.59058426 129.46198673 250.74728775 129.47233677 C254.44276818 129.50312494 258.13817629 129.52019204 261.83374405 129.53711033 C264.40207413 129.55582545 266.97039808 129.57539912 269.53871536 129.59579563 C275.59812801 129.64184929 281.65753713 129.67927053 287.71703202 129.7124685 C294.61917592 129.75076788 301.52122675 129.8001574 308.42329204 129.85045266 C322.61342451 129.95360886 336.80362003 130.04292199 350.9939003 130.12304783 C351.10840507 174.10747936 351.19647934 218.09189508 351.24922695 262.07644634 C351.2554803 267.27207481 351.26195193 272.46770299 351.2685585 277.66333103 C351.26987005 278.69766432 351.27118161 279.73199761 351.2725329 280.79767434 C351.2942751 297.53400795 351.3336901 314.27025547 351.37966428 331.00653806 C351.4264619 348.18617398 351.45420269 365.3657649 351.46434277 382.54546195 C351.47119506 393.1418313 351.49281845 403.73795731 351.53348263 414.33425174 C351.5599618 421.60567721 351.56788959 428.87697732 351.56140719 436.14844748 C351.55821234 440.34050137 351.56302576 444.53213075 351.58992767 448.7241087 C351.61442441 452.56957512 351.61538302 456.41433528 351.59839477 460.25983558 C351.59531233 462.29424042 351.61672978 464.32863809 351.63930684 466.36291999 C351.52713872 480.27370411 346.887964 490.78067927 337.41186905 500.79492283 C330.17669368 507.62521004 320.49756962 512.23597709 310.54046345 512.26006222 C309.42582975 512.26513676 308.31119606 512.2702113 307.16278559 512.27543962 C305.93820106 512.27593738 304.71361652 512.27643513 303.45192337 512.27694798 C302.15094127 512.28133023 300.84995917 512.28571248 299.50955337 512.29022753 C295.895186 512.30218321 292.28083197 512.30783917 288.66644871 512.31240869 C284.76915623 512.31836874 280.87187967 512.32997772 276.97459793 512.3406992 C267.55973748 512.36521619 258.14487175 512.37985047 248.7299892 512.39275926 C246.06980132 512.39647208 243.40961396 512.40044525 240.7494266 512.40451193 C224.22311501 512.42975222 207.69680257 512.45180115 191.17047596 512.46424007 C187.34281855 512.46716969 183.51516116 512.47013136 179.68750381 512.47314548 C178.26051679 512.47426456 178.26051679 512.47426456 176.80470174 512.47540624 C161.40394928 512.48805188 146.00331248 512.52126447 130.60261405 512.56294732 C114.78338028 512.60541111 98.96420565 512.62894034 83.14491504 512.63416064 C74.26613951 512.63757 65.38754464 512.6492688 56.5088253 512.68226337 C48.94483771 512.71032637 41.38106782 512.72123596 33.81703223 512.71006791 C29.96113752 512.70489692 26.10569823 512.70766534 22.2498703 512.73253345 C18.05917773 512.75933423 13.86947822 512.74691258 9.67873001 512.73104954 C8.47422197 512.74493163 7.26971394 512.75881371 6.02870566 512.77311647 C-7.52346443 512.64722919 -17.94973047 507.74648133 -27.6779747 498.54101658 C-35.23270663 490.5384526 -39.16180999 480.61082067 -39.14311409 469.76429176 C-39.14576592 469.01730997 -39.14841774 468.27032818 -39.15114993 467.50071058 C-39.15884359 464.98362082 -39.15940213 462.46657984 -39.15999985 459.9494791 C-39.16401444 458.13212917 -39.16845266 456.31478013 -39.1732794 454.49743217 C-39.18525135 449.49207257 -39.19089481 444.48672261 -39.19546056 439.48135149 C-39.20141437 434.08711497 -39.21302484 428.69288998 -39.22375107 423.29866123 C-39.24828122 410.26493086 -39.26290368 397.23119667 -39.27581114 384.19745031 C-39.2795228 380.51623862 -39.28349606 376.8350273 -39.2875638 373.15381598 C-39.31280143 350.29559756 -39.3348553 327.43737853 -39.34729195 304.57914925 C-39.35022166 299.28364211 -39.35318332 293.988135 -39.35619736 288.69262791 C-39.35731643 286.71835838 -39.35731643 286.71835838 -39.35845812 284.70420461 C-39.37110961 263.38659171 -39.40432944 242.06907917 -39.44599919 220.75150181 C-39.48842771 198.86636168 -39.5119881 176.98126425 -39.51721251 155.0960831 C-39.52062571 142.80795692 -39.53237023 130.51996112 -39.56531525 118.23187542 C-39.59332952 107.76569785 -39.60430899 97.29967738 -39.59311979 86.83346523 C-39.58793662 81.49512392 -39.59079801 76.15711152 -39.61558533 70.81881809 C-39.63811309 65.92621125 -39.63731037 61.03416893 -39.61838146 56.14155196 C-39.6155864 54.37697576 -39.62115232 52.61236099 -39.63619439 50.84784669 C-39.76241513 35.06943323 -36.53565111 23.19378364 -25.42406845 11.45117283 C-18.80811135 5.20545177 -9.24299081 -0.00514643 0 0 Z M69.6814003 232.18554783 C69.2070253 232.75918064 68.7326503 233.33281345 68.2439003 233.92382908 C66.81908667 235.65041288 65.40531006 237.38549961 63.9939003 239.12304783 C62.84341202 240.52877048 62.84341202 240.52877048 61.66968155 241.96289158 C60.21312716 243.74370583 58.75871559 245.52627476 57.3064003 247.31054783 C54.73243284 250.44104879 52.11802747 253.53461368 49.4939003 256.62304783 C44.59011566 262.40006286 39.7588322 268.23059557 34.9939003 274.12304783 C34.48584854 274.75130466 33.97779678 275.3795615 33.45434952 276.02685642 C31.7981813 278.07760684 30.14545149 280.13107784 28.4939003 282.18554783 C27.96482071 282.84151951 27.43574112 283.49749119 26.89062881 284.1733408 C22.89043886 289.16489641 21.36890338 291.91489428 21.4782753 298.29492283 C22.50592245 303.93141176 26.34843842 307.89049399 29.9939003 312.12304783 C30.74123428 313.00017429 30.74123428 313.00017429 31.50366592 313.89502048 C34.25395896 317.11460956 37.03053105 320.30976446 39.82593155 323.49023533 C43.23260874 327.37577086 46.49916505 331.36581055 49.7517128 335.38086033 C52.29643741 338.49304966 54.89009501 341.56030167 57.4939003 344.62304783 C60.99079877 348.7383003 64.45241171 352.87790316 67.8689003 357.06054783 C68.59206436 357.9448447 69.31522842 358.82914158 70.06030655 359.74023533 C71.22427877 361.17462534 72.38049309 362.61543456 73.52124405 364.06836033 C76.4261789 367.72381026 78.65160891 369.75032139 83.32593155 370.49414158 C88.85185641 370.64207972 92.22548639 370.02921635 96.6189003 366.60742283 C99.5547412 363.43804913 100.30252394 360.50940986 100.3689003 356.24804783 C100.39725967 355.42562595 100.42561905 354.60320408 100.4548378 353.75586033 C99.38956192 347.67114897 94.27502906 342.96251285 90.3064003 338.43554783 C89.22989854 337.19421032 88.15438621 335.95201412 87.0798378 334.70898533 C86.55357803 334.10022556 86.02731827 333.4914658 85.48511124 332.86425877 C82.68572482 329.59555806 79.98727043 326.24531538 77.2751503 322.90429783 C74.69547176 319.7592103 72.06759696 316.65823695 69.4314003 313.56054783 C64.84333684 308.16640825 60.37653058 302.68610002 55.9939003 297.12304783 C57.52129114 293.69631087 59.53721201 291.06463501 61.9314003 288.18554783 C62.73448624 287.21746189 63.53757217 286.24937595 64.36499405 285.25195408 C67.5305459 281.47594553 70.71551485 277.71633328 73.90576553 273.96118259 C77.54437758 269.67311287 81.10889829 265.32862896 84.65405655 260.96289158 C86.39292548 258.85244464 88.14740109 256.76459644 89.92749405 254.68945408 C90.42636124 254.10679783 90.92522842 253.52414158 91.4392128 252.92382908 C92.41092176 251.79186446 93.38601972 250.66279743 94.36499405 249.53711033 C99.03925491 244.08833532 100.46774786 240.72254746 100.31030655 233.59570408 C99.70976765 228.90260378 97.30380221 226.27884363 93.8689003 223.24804783 C83.27157919 219.10127 76.35592028 223.92558469 69.6814003 232.18554783 Z M164.9939003 226.12304783 C161.51832428 232.37303777 159.21907029 238.8433189 156.95972061 245.61279392 C156.57874725 246.73906696 156.1977739 247.86534 155.80525589 249.02574253 C154.76977756 252.09245231 153.73972081 255.16090637 152.71308994 258.23058748 C152.06969307 260.15345549 151.42474667 262.07579683 150.77929306 263.99797535 C148.5229351 270.71818754 146.27338299 277.44063773 144.02954483 284.16504002 C141.94514106 290.41097756 139.84502455 296.65148121 137.73771405 302.88972318 C135.92227147 308.26647682 134.11850566 313.64705785 132.32350421 319.03066981 C131.25419728 322.23701157 130.18027047 325.44161262 129.09428024 328.64234638 C127.88539199 332.21514311 126.69573817 335.79381175 125.51050186 339.37451267 C125.15210724 340.42002796 124.79371262 341.46554325 124.42445755 342.54274082 C121.99790454 349.96938557 120.10516533 357.27562474 123.6814003 364.56054783 C126.71274723 367.91960795 128.73529678 369.81660414 133.32593155 370.43945408 C137.56888084 370.63665262 140.45269413 370.3635839 144.3689003 368.62304783 C150.34557756 362.93097425 152.475832 354.28036016 155.02807999 346.63330173 C155.40905334 345.50702869 155.7900267 344.38075565 156.18254471 343.22035313 C157.21802303 340.15364335 158.24807979 337.08518929 159.27471066 334.01550817 C159.91810753 332.09264017 160.56305393 330.17029883 161.20850754 328.24812031 C163.4648655 321.52790812 165.71441761 314.80545793 167.95825577 308.08105564 C170.04265954 301.8351181 172.14277605 295.59461445 174.25008655 289.35637248 C176.06552913 283.97961884 177.86929494 278.59903781 179.66429639 273.21542585 C180.73360332 270.00908409 181.80753013 266.80448304 182.89352036 263.60374928 C184.10240861 260.03095255 185.29206243 256.45228391 186.47729874 252.87158298 C186.83569336 251.8260677 187.19408798 250.78055241 187.56334305 249.70335484 C189.98989606 242.27671009 191.88263527 234.97047092 188.3064003 227.68554783 C185.27505336 224.32648771 183.25250382 222.42949152 178.66186905 221.80664158 C172.96945692 221.5420767 169.27500848 222.04580195 164.9939003 226.12304783 Z M213.1189003 228.24804783 C211.46187957 232.48265635 211.13958601 236.64966985 211.9939003 241.12304783 C214.69091234 245.7987089 218.13812896 249.76878268 221.6814003 253.81054783 C222.75790206 255.05188534 223.83341439 256.29408154 224.9079628 257.53711033 C225.43422256 258.14587009 225.96048233 258.75462986 226.50268936 259.38183689 C229.30207578 262.6505376 232.00053017 266.00078028 234.7126503 269.34179783 C237.29232884 272.48688536 239.92020364 275.5878587 242.5564003 278.68554783 C247.14446376 284.0796874 251.61127001 289.55999563 255.9939003 295.12304783 C254.46650946 298.54978479 252.45058859 301.18146065 250.0564003 304.06054783 C249.25331436 305.02863377 248.45022842 305.9967197 247.62280655 306.99414158 C244.4572547 310.77015013 241.27228575 314.52976237 238.08203506 318.28491306 C234.44342302 322.57298279 230.8789023 326.9174667 227.33374405 331.28320408 C225.59487511 333.39365102 223.84039951 335.48149922 222.06030655 337.55664158 C221.31200577 338.43062595 221.31200577 338.43062595 220.5485878 339.32226658 C219.57687884 340.4542312 218.60178088 341.58329822 217.62280655 342.70898533 C212.94854569 348.15776034 211.52005274 351.5235482 211.67749405 358.65039158 C212.27803295 363.34349188 214.68399839 365.96725203 218.1189003 368.99804783 C222.35350882 370.65506856 226.52052232 370.97736212 230.9939003 370.12304783 C235.69763465 367.52491184 238.96655271 364.19373164 242.3064003 360.06054783 C243.0179628 359.20009861 243.0179628 359.20009861 243.7439003 358.32226658 C245.16871392 356.59568278 246.58249054 354.86059605 247.9939003 353.12304783 C248.76089249 352.18589939 249.52788467 351.24875095 250.31811905 350.28320408 C251.77467344 348.50238983 253.22908501 346.7198209 254.6814003 344.93554783 C257.25536776 341.80504686 259.86977313 338.71148198 262.4939003 335.62304783 C267.39768493 329.8460328 272.22896839 324.01550009 276.9939003 318.12304783 C277.50195206 317.49479099 278.01000381 316.86653416 278.53345108 316.21923923 C280.1896193 314.16848881 281.84234911 312.11501782 283.4939003 310.06054783 C284.02297989 309.40457615 284.55205948 308.74860447 285.09717178 308.07275486 C288.43100116 303.91270372 290.15351472 301.6838102 290.3064003 296.37304783 C290.34378311 295.53257908 290.38116592 294.69211033 290.41968155 293.82617283 C289.45423429 287.69691136 284.28685205 282.97599919 280.3064003 278.43554783 C279.22989854 277.19421032 278.15438621 275.95201412 277.0798378 274.70898533 C276.55357803 274.10022556 276.02731827 273.4914658 275.48511124 272.86425877 C272.68453856 269.59417292 269.98507052 266.24237318 267.27124405 262.90039158 C264.71185894 259.77908316 262.10792363 256.69858148 259.4939003 253.62304783 C256.10268922 249.63145637 252.74254739 245.61918492 249.4314003 241.56054783 C248.71468155 240.68398533 247.9979628 239.80742283 247.2595253 238.90429783 C246.06945031 237.44337819 244.88021126 235.98175104 243.69897842 234.51367283 C242.36594473 232.85753808 241.02421222 231.20875836 239.6814003 229.56054783 C238.88089249 228.56925877 238.08038467 227.5779697 237.25561905 226.55664158 C234.46987198 223.55919698 232.65478891 222.35875149 228.6267128 221.78711033 C221.70291043 221.67926294 217.84493597 222.89187407 213.1189003 228.24804783 Z " fill="#FFFFFF" transform="translate(100.00609970092773,-0.1230478286743164)"/>
<path d="M0 0 C7.87530001 6.75025715 7.87530001 6.75025715 11.06871033 9.94172668 C11.79353607 10.6637326 12.51836182 11.38573853 13.26515198 12.12962341 C14.03479782 12.90129349 14.80444366 13.67296356 15.59741211 14.46801758 C16.42748779 15.29634094 17.25756348 16.12466431 18.11279297 16.97808838 C20.83681925 19.6977375 23.55720032 22.42099898 26.27734375 25.14453125 C28.17291403 27.03942769 30.06863148 28.93417597 31.9644928 30.82878113 C35.92612497 34.78860031 39.88565749 38.75050977 43.84399414 42.71362305 C48.42460024 47.29969268 53.0088281 51.88211839 57.59490961 56.46271211 C61.53740877 60.40068214 65.47796713 64.34058628 69.41689116 68.28213233 C71.76766083 70.63446299 74.11930031 72.98591109 76.47230339 75.33600807 C79.08673806 77.94792007 81.69797453 80.56298675 84.30834961 83.17895508 C85.09216507 83.96074631 85.87598053 84.74253754 86.68354797 85.54801941 C87.38863495 86.25592621 88.09372192 86.96383301 88.82017517 87.69319153 C89.43790267 88.31129605 90.05563017 88.92940058 90.69207668 89.56623554 C92 91 92 91 92 92 C61.64 92 31.28 92 0 92 C0 61.64 0 31.28 0 0 Z " fill="#FFFFFF" transform="translate(351,8)"/>
</svg>
